<?xml version="1.0" standalone="no"?>
<!DOCTYPE svg PUBLIC "-//W3C//DTD SVG 20010904//EN"
 "http://www.w3.org/TR/2001/REC-SVG-20010904/DTD/svg10.dtd">
<svg version="1.0" xmlns="http://www.w3.org/2000/svg"
 width="700.000000pt" height="700.000000pt" viewBox="0 0 700.000000 700.000000"
 preserveAspectRatio="xMidYMid meet">
<metadata>
Created by potrace 1.11, written by Peter Selinger 2001-2013
</metadata>
<g transform="translate(0.000000,700.000000) scale(0.100000,-0.100000)"
fill="#000000" stroke="none">
<path d="M288 6986 c-137 -40 -246 -159 -277 -304 -16 -76 -16 -6288 0 -6364
42 -197 222 -334 412 -314 70 7 154 43 206 87 44 39 106 127 123 177 10 28 14
230 18 839 l5 802 90 -60 c186 -125 428 -225 659 -271 l111 -23 1805 0 1805 0
55 26 c255 120 313 467 111 668 -25 26 -73 60 -106 77 l-60 29 -1765 6 c-1646
5 -1770 6 -1839 23 -380 91 -672 357 -802 733 -41 118 -60 239 -60 383 0 207
42 381 135 555 113 214 280 375 491 476 120 57 217 85 345 99 59 6 732 10
1775 10 1847 0 1726 -4 1827 61 111 71 179 200 180 339 1 215 -138 381 -345
411 -84 12 -3243 11 -3423 -1 -337 -23 -637 -123 -899 -299 l-90 -60 -5 802
c-4 609 -8 811 -18 839 -17 50 -79 138 -123 177 -88 75 -234 108 -341 77z"/>
<path d="M1753 6985 c-188 -51 -310 -249 -281 -457 23 -170 158 -311 324 -338
36 -6 683 -10 1699 -10 1784 0 1724 2 1906 -56 416 -131 726 -469 804 -876 20
-104 21 -298 1 -399 -89 -458 -433 -798 -926 -915 -70 -17 -190 -19 -1790 -24
l-1715 -5 -55 -22 c-237 -97 -328 -400 -184 -614 53 -80 117 -129 209 -163 21
-7 534 -12 1745 -16 1896 -6 1748 -1 1945 -69 401 -139 693 -469 771 -870 20
-101 19 -295 -1 -399 -79 -410 -386 -744 -804 -876 -182 -58 -122 -56 -1906
-56 -1016 0 -1663 -4 -1699 -10 -166 -27 -301 -168 -324 -338 -23 -167 50
-330 188 -417 92 -58 2 -56 1871 -52 1587 3 1721 4 1809 20 442 83 783 259
1086 561 125 125 207 227 286 356 509 832 328 1892 -432 2523 l-45 37 40 32
c75 60 198 183 273 273 391 467 540 1092 400 1680 -88 367 -253 662 -522 931
-303 302 -644 478 -1086 561 -88 16 -220 17 -1815 20 -1461 2 -1728 0 -1772
-12z"/>
</g>
</svg>
