<?xml version="1.0" standalone="no"?>
<!DOCTYPE svg PUBLIC "-//W3C//DTD SVG 20010904//EN"
 "http://www.w3.org/TR/2001/REC-SVG-20010904/DTD/svg10.dtd">
<svg version="1.0" xmlns="http://www.w3.org/2000/svg"
 width="700.000000pt" height="700.000000pt" viewBox="0 0 700.000000 700.000000"
 preserveAspectRatio="xMidYMid meet">
<metadata>
Created by potrace 1.11, written by Peter Selinger 2001-2013
</metadata>
<g transform="translate(0.000000,700.000000) scale(0.100000,-0.100000)"
fill="#000000" stroke="none">
<path d="M3215 6989 c-748 -64 -1435 -351 -1995 -835 -551 -475 -938 -1101
-1114 -1799 -34 -137 -72 -346 -88 -490 -17 -155 -17 -575 0 -730 63 -570 255
-1100 567 -1570 270 -405 644 -771 1047 -1024 457 -287 944 -456 1503 -523
139 -16 595 -16 730 0 847 103 1555 446 2131 1034 204 208 346 389 490 623
269 439 429 910 496 1460 16 130 16 600 0 730 -73 596 -246 1079 -557 1555
-139 213 -239 336 -449 548 -657 668 -1554 1038 -2496 1031 -91 -1 -210 -6
-265 -10z m-1182 -1853 c23 -12 50 -39 65 -66 l27 -45 5 -381 5 -382 64 39
c35 21 99 52 142 69 155 60 164 60 1142 60 890 0 891 0 935 -21 151 -74 130
-306 -32 -354 -42 -13 -183 -15 -929 -15 l-878 0 -76 -25 c-271 -91 -423 -366
-358 -644 42 -174 169 -313 359 -390 37 -14 138 -17 956 -21 890 -5 916 -6
954 -25 22 -11 53 -37 70 -58 26 -32 31 -48 34 -105 3 -60 0 -72 -26 -113 -20
-31 -45 -53 -75 -68 l-45 -22 -928 3 c-928 3 -929 3 -1009 26 -83 23 -225 86
-276 123 l-29 20 0 -361 c0 -406 -3 -433 -60 -490 -94 -94 -258 -66 -311 55
-19 42 -19 82 -17 1567 l3 1524 27 42 c58 86 166 111 261 58z m2492 1 c351
-96 601 -332 702 -664 23 -77 26 -106 27 -228 0 -116 -3 -155 -22 -223 -52
-192 -146 -340 -305 -478 l-47 -41 104 -104 c64 -65 119 -131 145 -176 157
-265 172 -569 42 -839 -49 -103 -84 -155 -159 -235 -145 -157 -349 -265 -576
-304 -75 -13 -223 -15 -945 -15 l-857 0 -44 23 c-24 12 -57 39 -74 60 -78 99
-23 262 102 297 24 6 331 10 879 10 564 0 860 4 895 11 138 28 246 87 337 184
99 107 141 211 141 352 0 269 -220 494 -522 533 -41 5 -442 10 -904 10 l-830
0 -46 29 c-114 72 -117 245 -5 319 l41 27 885 6 c808 5 891 7 946 23 368 109
537 457 373 769 -44 81 -157 186 -252 232 -137 66 -120 65 -1056 65 -558 0
-858 4 -883 11 -122 34 -178 199 -100 297 16 20 49 47 74 60 l44 23 895 -3
895 -3 100 -28z"/>
</g>
</svg>
